{"title":"KellyDivine Body Painting Sluts XXX MP4-TBP","uid":12348606,"size":364975972,"categoryP":"porn","categoryS":"movie_clips","magnet":"?xt=urn:btih:7f0317f7006af6c2f0b226fa6a92bc9e9831aa36&amp;dn=KellyDivine+Body+Painting+Sluts+XXX+MP4-TBP&amp;tr=udp%3A%2F%2Ftracker.openbittorrent.com%3A80&amp;tr=udp%3A%2F%2Fopen.demonii.com%3A1337&amp;tr=udp%3A%2F%2Ftracker.coppersurfer.tk%3A6969&amp;tr=udp%3A%2F%2Fexodus.desync.com%3A6969","seeders":0,"leechers":0,"uploader":null,"files":1,"time":1441385143,"description":"THE.BEST.PORN.GIVES\n\nKellyDivine.Body.Painting.Sluts.XXX.MP4-TBP\n\nWEBSITE : www.KellyDivine.com\n\nGeneral\nComplete name : tbp.kdpbpsluts.mp4\nFormat : MPEG-4\nFormat profile : Base Media\nCodec ID : isom\n\nDuration : 26mn 12s\nOverall bit rate : 1 185 Kbps\nWriting application : Lavf56.4.101\n\nVideo\n\nFormat : AVC\nFormat/Info : Advanced Video Codec\nFormat profile : BaselineL2.1\nFormat settings, CABAC : No\nFormat settings, ReFrames : 1 frame\nFormat settings, GOP : M=1, N=12\nCodec ID : avc1\nCodec ID/Info : Advanced Video Coding\nDuration : 26mn 12s\n\nWidth : 480 pixels\nHeight : 320 pixels\nDisplay aspect ratio : 16:9\nOriginal display aspect ratio : 16:9\nFrame rate mode : Constant\nFrame rate : 29.970 fps\nColor space : YUV\nChroma subsampling : 4:2:0\nBit depth : 8 bits\nScan type : Progressive\nBits/(PixelFrame) : 0.228\nStream size : 197 MiB (89)\n\nAudio\n\nFormat : AAC\nFormat/Info : Advanced Audio Codec\nFormat profile : LC\nCodec ID : 40\nDuration : 26mn 11s\nBit rate mode : Constant\n\nChannel(s) : 2 channels\nChannel positions : Front: L R\nSampling rate : 44.1 KHz\nCompression mode : Lossy\nStream size : 23.8 MiB (11)\n\nAnd the others which make this fun","torrent":{"xt":"urn:btih:7f0317f7006af6c2f0b226fa6a92bc9e9831aa36","amp;dn":"KellyDivine+Body+Painting+Sluts+XXX+MP4-TBP","amp;tr":["udp%3A%2F%2Ftracker.openbittorrent.com%3A80","udp%3A%2F%2Fopen.demonii.com%3A1337","udp%3A%2F%2Ftracker.coppersurfer.tk%3A6969","udp%3A%2F%2Fexodus.desync.com%3A6969"],"infoHash":"7f0317f7006af6c2f0b226fa6a92bc9e9831aa36","infoHashBuffer":{"type":"Buffer","data":[127,3,23,247,0,106,246,194,240,178,38,250,106,146,188,158,152,49,170,54]},"announce":[],"urlList":[]}}